<?xml version="1.0" encoding="utf-8"?>
<!-- Generator: Adobe Illustrator 20.1.0, SVG Export Plug-In . SVG Version: 6.00 Build 0)  -->
<svg version="1.1" id="Layer_1" xmlns="http://www.w3.org/2000/svg" xmlns:xlink="http://www.w3.org/1999/xlink" x="0px" y="0px"
	 viewBox="0 0 270 270" style="enable-background:new 0 0 270 270;" xml:space="preserve">
<style type="text/css">
	.st0{fill:#847D79;}
</style>
<g>
	<path class="st0" d="M73,89.9c-2.5-2.1-5.4-3.2-8.7-3.2c-1.3,0-2.6,0.3-3.7,1c-1.2,0.7-1.9,1.7-1.9,3.1c0,1.4,0.8,2.4,2.2,3.1
		c1.3,0.7,2.6,1.2,3.8,1.6l3.4,1c3.5,0.9,6.3,2.4,8.5,4.4c2.2,2.1,3.3,5.1,3.4,9c0,2.4-0.3,4.8-1.1,7.2c-0.7,2.3-2.1,4.3-4,6.1
		c-4.1,3.1-8.7,4.7-13.9,4.6c-6.3-0.1-12.1-2-17.3-5.7l5.5-10.4c1.7,1.4,3.5,2.6,5.3,3.5c1.9,1,4,1.6,6.2,1.6c1.6,0,3-0.4,4.3-1.2
		c1.3-0.8,1.9-2,2-3.7c0-0.9-0.3-1.7-0.8-2.3c-0.6-0.7-1.3-1.2-2.2-1.6c-1.9-0.8-3.7-1.4-5.3-1.7c-1.9-0.6-3.7-1.2-5.2-1.9
		c-1.6-0.7-3-1.5-4.2-2.4c-1.2-1-2-2.2-2.6-3.8c-0.7-1.6-1-3.5-1-5.8c0-5.1,1.7-9.1,4.8-12c3.1-3,7.2-4.5,12.2-4.5
		c5.4,0,10.6,1.4,15.5,4.1L73,89.9z"/>
	<path class="st0" d="M132.3,87.6V96h14.2v11h-14.2v8.6h14.9v11h-27.9V76.6h27.9v11H132.3z"/>
	<path class="st0" d="M188.9,76.6h19.6c5.4,0,9.7,1.3,13,3.8c3.3,2.6,4.9,6.8,5,12.6c-0.1,11.4-5.9,17.1-17.4,16.9h-7.2v16.5h-12.9
		V76.6z M201.8,99.5h2.2c1.2,0,2.4,0,3.5-0.1c1.1,0,2.1-0.3,3-0.6c0.9-0.4,1.6-1,2.1-1.8c0.5-0.8,0.7-1.9,0.7-3.4
		c0-1.6-0.2-2.8-0.7-3.7c-0.4-0.8-1.1-1.5-2-1.8c-0.8-0.4-1.8-0.6-3-0.7c-1.2-0.1-2.4-0.1-3.7-0.1h-2.2V99.5z"/>
</g>
<g>
	<path class="st0" d="M270,169.8H0v-136h270V169.8z M10,158.8h249v-115H10V158.8z"/>
</g>
<g>
	<path class="st0" d="M16.3,213.5v15c0,2.1-0.8,3.8-2.3,5.4c-1.5,1.5-3.4,2.3-5.5,2.3c-1.3,0-2.5-0.3-3.8-0.9
		c-1.2-0.6-2.6-1.5-4-2.9v-6.3c0-0.4,0.1-0.7,0.2-0.9c0.2-0.2,0.4-0.3,0.6-0.3c0.3,0,0.5,0.1,0.6,0.3c0.2,0.2,0.2,0.5,0.2,0.9l0,5.5
		c1,1,2.1,1.7,3.1,2.2c1,0.5,2,0.7,3,0.7c1.1,0,2.2-0.3,3.1-0.8c0.7-0.4,1.4-1.1,2-2c0.6-1,0.9-2,0.9-3.1v-15H7.9
		c-0.4,0-0.7-0.1-0.9-0.2c-0.2-0.1-0.3-0.4-0.3-0.6c0-0.3,0.1-0.5,0.3-0.6c0.2-0.2,0.5-0.2,0.9-0.2h12.4c0.4,0,0.7,0.1,0.9,0.2
		c0.2,0.2,0.3,0.4,0.3,0.6c0,0.3-0.1,0.5-0.3,0.6c-0.2,0.2-0.5,0.2-0.9,0.2H16.3z"/>
	<path class="st0" d="M69.8,223.7c0,2.3-0.5,4.4-1.4,6.3c-0.9,1.9-2.2,3.4-3.8,4.5c-1.6,1.1-3.3,1.6-5.2,1.6c-2.7,0-5.2-1.2-7.2-3.5
		c-2.1-2.3-3.1-5.3-3.1-9c0-3.7,1-6.6,3.1-9c2.1-2.3,4.5-3.5,7.2-3.5c1.8,0,3.6,0.5,5.2,1.6c1.6,1.1,2.9,2.6,3.8,4.5
		C69.3,219.3,69.8,221.4,69.8,223.7z M68.1,223.7c0-2.8-0.8-5.2-2.4-7.5c-1.6-2.2-3.7-3.3-6.2-3.3c-2.4,0-4.4,1.1-6.1,3.1
		c-1.7,2.1-2.5,4.6-2.5,7.6c0,3.2,0.9,5.7,2.7,7.7c1.8,2,3.8,3,6,3c2.5,0,4.6-1.1,6.2-3.3C67.3,229,68.1,226.5,68.1,223.7z"/>
	<path class="st0" d="M103.6,224.9v8.9h3.1c0.4,0,0.7,0.1,0.9,0.2c0.2,0.2,0.3,0.4,0.3,0.6c0,0.2-0.1,0.4-0.3,0.6
		c-0.2,0.2-0.5,0.2-0.9,0.2h-7.1c-0.4,0-0.7-0.1-0.9-0.2c-0.2-0.2-0.3-0.4-0.3-0.6c0-0.3,0.1-0.5,0.3-0.6c0.2-0.1,0.5-0.2,0.9-0.2
		h2.3v-20.3h-2.3c-0.4,0-0.7-0.1-0.9-0.2c-0.2-0.1-0.3-0.4-0.3-0.6c0-0.3,0.1-0.5,0.3-0.6c0.2-0.2,0.5-0.2,0.9-0.2h10.3
		c2.1,0,3.9,0.7,5.4,2c1.5,1.3,2.2,2.9,2.2,4.5c0,1.2-0.4,2.4-1.3,3.4c-0.9,1.1-2.4,2-4.5,2.7c1.2,0.8,2.3,1.8,3.1,2.8
		c0.9,1,2.2,3.2,4.1,6.5h1.3c0.4,0,0.7,0.1,0.9,0.2c0.2,0.2,0.3,0.4,0.3,0.6c0,0.2-0.1,0.4-0.3,0.6c-0.2,0.2-0.5,0.2-0.9,0.2h-2.3
		c-2.1-3.8-3.7-6.3-4.9-7.6c-1.2-1.3-2.5-2.3-4-3H103.6z M103.6,223.2h4.6c1.5,0,2.8-0.3,4-0.8c1.2-0.5,2.1-1.2,2.6-1.9
		c0.6-0.7,0.8-1.5,0.8-2.2c0-1.1-0.6-2.2-1.7-3.2c-1.1-1-2.5-1.5-4.2-1.5h-6.3V223.2z"/>
	<path class="st0" d="M152.2,233.8v-20.3h-1.4c-0.4,0-0.7-0.1-0.9-0.2c-0.2-0.1-0.3-0.4-0.3-0.6c0-0.3,0.1-0.5,0.3-0.6
		c0.2-0.2,0.5-0.2,0.9-0.2h9.1c1.4,0,2.7,0.3,3.9,0.9c1.2,0.6,2.1,1.3,2.7,2c1.1,1.3,1.9,2.6,2.4,4.1c0.4,1.1,0.6,2.3,0.6,3.7v2.4
		c0,1.7-0.4,3.4-1.2,5.1c-0.8,1.6-2.1,3.1-3.8,4.3c-1.3,0.9-2.9,1.3-4.6,1.3h-9.1c-0.4,0-0.7-0.1-0.9-0.2c-0.2-0.2-0.3-0.4-0.3-0.6
		c0-0.3,0.1-0.5,0.3-0.6c0.2-0.1,0.5-0.2,0.9-0.2H152.2z M153.9,233.8h6.2c1.4,0,2.8-0.5,4-1.4c1.3-0.9,2.2-2.1,2.8-3.4
		c0.6-1.3,0.9-2.6,0.9-3.9v-3.1c0-1-0.2-2-0.5-2.8c-0.5-1.2-1.2-2.3-2.1-3.4c-0.5-0.6-1.2-1.1-2.1-1.6c-0.9-0.5-2-0.7-3.1-0.7h-6.2
		V233.8z"/>
	<path class="st0" d="M214.3,227.6h-11.2l-2.3,6.2h3.3c0.4,0,0.7,0.1,0.9,0.2c0.2,0.2,0.3,0.4,0.3,0.6c0,0.2-0.1,0.4-0.3,0.6
		c-0.2,0.2-0.5,0.2-0.9,0.2h-6.4c-0.4,0-0.7-0.1-0.9-0.2c-0.2-0.2-0.3-0.4-0.3-0.6c0-0.3,0.1-0.5,0.3-0.6c0.2-0.1,0.5-0.2,0.9-0.2
		h1.3l7.5-20.3h-5c-0.4,0-0.7-0.1-0.9-0.2c-0.2-0.1-0.3-0.4-0.3-0.6c0-0.3,0.1-0.5,0.3-0.6c0.2-0.2,0.5-0.2,0.9-0.2h8.6l8.3,22h1.3
		c0.4,0,0.7,0.1,0.9,0.2c0.2,0.2,0.3,0.4,0.3,0.6c0,0.2-0.1,0.4-0.3,0.6c-0.2,0.2-0.5,0.2-0.9,0.2h-6.3c-0.4,0-0.7-0.1-0.9-0.2
		c-0.2-0.2-0.3-0.4-0.3-0.6c0-0.3,0.1-0.5,0.3-0.6c0.2-0.1,0.5-0.2,0.9-0.2h3.2L214.3,227.6z M213.6,225.9l-4.7-12.4h-0.6l-4.6,12.4
		H213.6z"/>
	<path class="st0" d="M266.8,235.5h-2.2L252,214.3v19.5h3.1c0.4,0,0.7,0.1,0.9,0.2c0.2,0.2,0.3,0.4,0.3,0.6c0,0.2-0.1,0.4-0.3,0.6
		c-0.2,0.2-0.5,0.2-0.9,0.2h-6.2c-0.4,0-0.7-0.1-0.9-0.2c-0.2-0.2-0.3-0.4-0.3-0.6c0-0.3,0.1-0.5,0.3-0.6c0.2-0.1,0.5-0.2,0.9-0.2
		h1.4v-20.3h-2.3c-0.4,0-0.7-0.1-0.9-0.2c-0.2-0.1-0.3-0.4-0.3-0.6c0-0.3,0.1-0.5,0.3-0.6c0.2-0.2,0.5-0.2,0.9-0.2h4.5l12.5,21.2
		v-19.5h-3.1c-0.4,0-0.7-0.1-0.9-0.2c-0.2-0.1-0.3-0.4-0.3-0.6c0-0.3,0.1-0.5,0.3-0.6c0.2-0.2,0.5-0.2,0.9-0.2h6.3
		c0.4,0,0.7,0.1,0.9,0.2c0.2,0.2,0.3,0.4,0.3,0.6c0,0.3-0.1,0.5-0.3,0.6c-0.2,0.2-0.5,0.2-0.9,0.2h-1.4V235.5z"/>
</g>
</svg>
